<?xml version="1.0" encoding="UTF-8" standalone="no"?>
<svg
   xmlns:dc="http://purl.org/dc/elements/1.1/"
   xmlns:cc="http://creativecommons.org/ns#"
   xmlns:rdf="http://www.w3.org/1999/02/22-rdf-syntax-ns#"
   xmlns:svg="http://www.w3.org/2000/svg"
   xmlns="http://www.w3.org/2000/svg"
   xmlns:xlink="http://www.w3.org/1999/xlink"
   xmlns:sodipodi="http://sodipodi.sourceforge.net/DTD/sodipodi-0.dtd"
   xmlns:inkscape="http://www.inkscape.org/namespaces/inkscape"
   width="1920"
   height="1080"
   viewBox="0 0 508 285.75"
   version="1.1"
   id="svg8"
   sodipodi:docname="05_Using_Tor.svg"
   inkscape:version="1.0.1 (3bc2e813f5, 2020-09-07)"
   inkscape:export-filename="/home/neil/Pirate_Party/05_Accessing_the_Deep_Web.png"
   inkscape:export-xdpi="94.396156"
   inkscape:export-ydpi="94.396156">
  <sodipodi:namedview
     pagecolor="#ffffff"
     bordercolor="#666666"
     borderopacity="1"
     objecttolerance="10"
     gridtolerance="10"
     guidetolerance="10"
     inkscape:pageopacity="0"
     inkscape:pageshadow="2"
     inkscape:window-width="1920"
     inkscape:window-height="1059"
     id="namedview986"
     showgrid="false"
     inkscape:zoom="0.49055533"
     inkscape:cx="1040.0649"
     inkscape:cy="656.37041"
     inkscape:window-x="0"
     inkscape:window-y="21"
     inkscape:window-maximized="0"
     inkscape:current-layer="svg8" />
  <defs
     id="defs2">
    <linearGradient
       inkscape:collect="always"
       id="linearGradient1185">
      <stop
         style="stop-color:#892ca0;stop-opacity:1;"
         offset="0"
         id="stop1181" />
      <stop
         style="stop-color:#892ca0;stop-opacity:0;"
         offset="1"
         id="stop1183" />
    </linearGradient>
    <linearGradient
       id="linearGradient1329">
      <stop
         style="stop-color:#dd55ff;stop-opacity:1;"
         offset="0"
         id="stop1325" />
      <stop
         style="stop-color:#dd55ff;stop-opacity:0;"
         offset="1"
         id="stop1327" />
    </linearGradient>
    <linearGradient
       id="linearGradient1098">
      <stop
         style="stop-color:#333333;stop-opacity:1;"
         offset="0"
         id="stop1094" />
      <stop
         style="stop-color:#333333;stop-opacity:0;"
         offset="1"
         id="stop1096" />
    </linearGradient>
    <linearGradient
       id="linearGradient972">
      <stop
         style="stop-color:#0073e3;stop-opacity:1;"
         offset="0"
         id="stop968" />
      <stop
         style="stop-color:#0073e3;stop-opacity:0;"
         offset="1"
         id="stop970" />
    </linearGradient>
    <linearGradient
       id="linearGradient923">
      <stop
         style="stop-color:#4d4d4d;stop-opacity:1;"
         offset="0"
         id="stop919" />
      <stop
         style="stop-color:#4d4d4d;stop-opacity:0;"
         offset="1"
         id="stop921" />
    </linearGradient>
    <rect
       x="12.335762"
       y="257.75071"
       width="540.68577"
       height="53.288908"
       id="rect4727" />
    <rect
       x="8.6668482"
       y="254.87101"
       width="484.9538"
       height="28.510533"
       id="rect4721" />
    <rect
       x="146.88943"
       y="60.142022"
       width="522.9919"
       height="115.62381"
       id="rect1397" />
    <radialGradient
       xlink:href="#linearGradient923"
       id="radialGradient925"
       cx="254"
       cy="142.875"
       fx="254"
       fy="142.875"
       r="254"
       gradientTransform="matrix(1,0,0,0.5625,0,62.507812)"
       gradientUnits="userSpaceOnUse" />
    <radialGradient
       xlink:href="#linearGradient972"
       id="radialGradient974"
       cx="253.99994"
       cy="142.875"
       fx="253.99994"
       fy="142.875"
       r="254"
       gradientTransform="matrix(1,0,0,0.5625,6.1035156e-5,62.507812)"
       gradientUnits="userSpaceOnUse" />
    <clipPath
       clipPathUnits="userSpaceOnUse"
       id="clipPath5089">
      <g
         id="g5095"
         transform="translate(-0.24773263,0.00231014)">
        <path
           style="fill:none;stroke:#000000;stroke-width:0.264583px;stroke-linecap:butt;stroke-linejoin:miter;stroke-opacity:1"
           d="m 462.71013,185.04538 -1.81322,-2.20784 -1.67651,-3.3844 -3.55924,-2.5315 -1.65323,-1.40896 -2.78032,-1.13576 -3.78976,-1.84125 -2.85509,-1.99313 -3.12285,-1.97514 -1.23204,-2.30752 0.003,-4.51316 -1.14348,-4.03184 -1.38676,-3.05336"
           id="path5091" />
        <path
           style="fill:none;stroke:#000000;stroke-width:0.264583px;stroke-linecap:butt;stroke-linejoin:miter;stroke-opacity:1"
           d="m 437.70063,154.66152 -1.75237,-7.21176 6.16276,-1.96616 11.00426,-1.3234 2.51378,-0.41053 1.0469,-2.58298 -1.36123,-2.99488 -4.68863,-4.093 -7.12647,-4.00684 -3.56402,-2.54237 -6.52393,-8.83037 -5.2619,-5.34698 -7.05276,-6.99942 -1.27299,-0.60872 -12.51686,0.1766 -0.82378,4.4944 -6.09772,8.03517 -5.6792,8.64673 -1.53858,3.08666 -4.40428,3.90014 -2.73407,3.4416 -0.76494,2.52602 0.21482,1.40712 -9.03827,12.07522 -0.29951,1.93695 1.18057,-0.0567 1.0872,-0.61424 6.36159,-8.09313 -1.15973,5.55084 -1.43441,6.53757 0.15658,4.74032 -1.52442,1.87068 -0.19246,2.5513 0.26321,1.24681 1.28503,-2.19814 0.60388,-0.21024 v 1.59257 l -0.86471,4.75545 -2.55754,1.62605 -0.93033,5.7029 -9.29743,4.63233 93.59146,-0.0597"
           id="path5093" />
      </g>
    </clipPath>
    <clipPath
       clipPathUnits="userSpaceOnUse"
       id="clipPath5203">
      <path
         style="fill:none;stroke:#000000;stroke-width:0.264583px;stroke-linecap:butt;stroke-linejoin:miter;stroke-opacity:1"
         d="m 368.87094,185.1074 9.29743,-4.63233 0.93033,-5.7029 2.55754,-1.62605 0.86471,-6.34802 -0.22585,-4.53227 -0.36597,-3.46846 2.59413,-12.08841 -6.36159,8.09313 -2.26777,0.67094 0.29951,-1.93695 9.03827,-12.07522 0.55013,-3.93314 7.13835,-7.34174 9.1214,-14.29771 4.1941,-5.47085 0.82378,-4.4944 12.51685,-0.1766 20.11159,21.78549 10.69049,6.54921 4.68863,4.093 1.36123,2.99488 -1.0469,2.58298 -13.51804,1.73393 -6.16276,1.96616 1.75236,7.21176 3.75928,13.90588 5.97795,3.96827 6.57008,2.97701 5.67137,6.89141 1.21761,0.43345 1.81322,2.20784 z"
         id="path5205" />
    </clipPath>
    <radialGradient
       xlink:href="#linearGradient1098"
       id="radialGradient1100"
       cx="254"
       cy="142.875"
       fx="254"
       fy="142.875"
       r="254"
       gradientTransform="matrix(1,0,0,0.5625,0,62.507812)"
       gradientUnits="userSpaceOnUse" />
    <radialGradient
       xlink:href="#linearGradient1329"
       id="radialGradient1331"
       cx="254.00006"
       cy="142.875"
       fx="254.00006"
       fy="142.875"
       r="254"
       gradientTransform="matrix(1,0,0,0.5625,0,62.507812)"
       gradientUnits="userSpaceOnUse" />
    <radialGradient
       inkscape:collect="always"
       xlink:href="#linearGradient1185"
       id="radialGradient1187"
       cx="254"
       cy="142.875"
       fx="254"
       fy="142.875"
       r="254"
       gradientTransform="matrix(1,0,0,0.5625,0,62.507812)"
       gradientUnits="userSpaceOnUse" />
  </defs>
  <metadata
     id="metadata5">
    <rdf:RDF>
      <cc:Work
         rdf:about="">
        <dc:format>image/svg+xml</dc:format>
        <dc:type
           rdf:resource="http://purl.org/dc/dcmitype/StillImage" />
        <dc:title />
      </cc:Work>
    </rdf:RDF>
  </metadata>
  <rect
     style="fill:#220b28;fill-opacity:1;stroke-width:10.2955"
     id="rect857"
     width="508"
     height="285.75"
     x="6.1035156e-05"
     y="0" />
  <rect
     style="fill:url(#radialGradient1187);fill-opacity:1;stroke-width:10.2955"
     id="rect861"
     width="508"
     height="285.75"
     x="-2.5e-13"
     y="0" />
  <text
     xml:space="preserve"
     id="text1395"
     style="font-style:normal;font-variant:normal;font-weight:bold;font-stretch:normal;font-size:33.5139px;line-height:1.25;font-family:sans-serif;-inkscape-font-specification:'sans-serif Bold';white-space:pre;shape-inside:url(#rect1397);fill:#ffffff;"
     transform="translate(-91.776524,-51.323137)"><tspan
       x="146.88867"
       y="88.763449"><tspan>Accessing the Deep Web</tspan></tspan></text>
  <g
     id="g1515"
     transform="matrix(0.004,0,0,0.004,483,25)">
    <circle
       id="circle1498"
       cx="0"
       cy="0"
       r="5000" />
    <circle
       r="4500"
       fill="#ffffff"
       id="circle1500"
       cx="0"
       cy="0" />
    <path
       d="m -1944,1560 v -4207 c -187,-12 -343,0 -441,29 -28,-61 144,-155 441,-245 v -810 h 438 v 700 c 1578,-327 4724,-344 4741,2384 11,1926 -3401,1632 -4390,2257 -1076,678 -593,2113 -593,2113 0,0 -651,-1344 -196,-2221 z m 438,-469 C -1044,777 -251,398 -98,-327 210,-1785 -717,-2390 -1506,-2580 Z"
       id="path1502" />
  </g>
  <text
     xml:space="preserve"
     id="text4719"
     style="font-size:25.4px;line-height:1.25;font-family:sans-serif;white-space:pre;shape-inside:url(#rect4721);"
     transform="translate(6.1035156e-5)" />
  <text
     xml:space="preserve"
     id="text4725"
     style="font-size:33.5139px;line-height:1.25;font-family:sans-serif;white-space:pre;shape-inside:url(#rect4727);fill:#000000;"
     transform="translate(-9.6562896,-23.047036)"><tspan
       x="12.335938"
       y="286.37087"><tspan
         style="font-style:normal;font-variant:normal;font-weight:bold;font-stretch:normal;font-size:33.5139px;font-family:sans-serif;-inkscape-font-specification:'sans-serif Bold';fill:#ffffff">6pm, Wednesday November 4th</tspan></tspan></text>
  <g
     id="layer2"
     style="display:inline" />
  <style
     type="text/css"
     id="style2136">
	.st0{fill:#FFFFFF;}
	.st1{fill:#003366;}
	.st2{fill:#EA7E20;}
</style>
  <g
     id="g1113"
     transform="matrix(0.26458333,0,0,0.26458333,216.25002,117.53013)">
    <g
       transform="matrix(3.0680807,0,0,3.0680807,-641.56034,-384.59393)"
       id="layer3"
       style="display:inline">
      <g
         id="layer5">
        <path
           d="m 264.513,77.977773 -4.917,19.529001 c 6.965,-13.793001 18.027,-24.172001 30.729,-33.323001 -9.287,10.789 -17.754,21.579001 -22.944,32.368001 8.741,-12.292001 20.486,-19.120001 33.733,-23.627001 -17.618,15.706001 -31.60228,32.559277 -42.25528,49.494277 l -8.467,-3.687 c 1.501,-13.521 6.60928,-27.369276 14.12128,-40.754277 z"
           id="path2554"
           style="fill:#abcd03" />
        <path
           d="m 241.90113,115.14152 16.116,6.68594 c 0,4.098 -0.33313,16.59703 2.22938,20.28403 26.80289,34.5191 22.29349,103.71329 -5.42951,105.48829 -42.21656,0 -58.317,-28.679 -58.317,-55.03801 0,-24.037 28.816,-40.016 46.025,-54.219 4.37,-3.824 3.61113,-12.27525 -0.62387,-23.20125 z"
           id="path2534"
           style="fill:#fffcdb" />
        <path
           d="m 258.02197,121.58695 5.80803,2.96282 c -0.546,3.823 0.273,12.292 4.096,14.476 16.936,10.516 32.914,21.988 39.197,33.46 22.398,40.42601 -15.706,77.84601 -48.62,74.29501 17.891,-13.248 23.081,-40.42501 16.389,-70.06201 -2.731,-11.609 -6.966,-22.125 -14.478,-34.007 -3.25421,-5.83246 -2.11803,-13.06582 -2.39203,-21.12482 z"
           id="path2536"
           style="fill:#7d4698" />
      </g>
      <g
         id="layer4"
         style="display:inline">
        <path
           d="m 255.226,120.58877 12.018,1.639 c -3.551,11.745 6.966,19.939 10.38,21.852 7.64801,4.234 15.02301,8.604 20.89601,13.93 11.063,10.106 17.345,24.31 17.345,39.333 0,14.886 -6.829,29.226 -18.301,38.786 -10.789,9.014 -25.67501,12.838 -40.15201,12.838 -9.014,0 -17.072,-0.409 -25.812,-3.278 -19.939,-6.692 -34.826,-23.763 -36.055,-44.25 -1.093,-15.979 2.458,-28.134 14.887,-40.835 6.418,-6.692 19.393,-14.34 28.271,-20.486 4.371,-3.005 9.014,-11.473 0.136,-27.451 l 1.776,-1.366 13.15659,8.81203 -11.10759,-4.57803 c 0.956,1.366 3.551,7.512 4.098,9.287 1.229,5.053 0.683,9.971 -0.41,12.155 -5.599,10.107 -15.159,12.838 -22.124,18.574 -12.292,10.106 -25.676,18.164 -24.174,45.888 0.683,13.657 11.336,30.319 27.314,38.104 9.014,4.371 19.394,6.146 29.91,6.692 9.423,0.41 27.45101,-5.19 37.28401,-13.384 10.516,-8.74 16.389,-21.988 16.389,-35.508 0,-13.658 -5.463,-26.632 -15.706,-35.783 -5.873,-5.326 -15.56901,-11.745 -21.57801,-15.16 -6.009,-3.414 -13.521,-12.974 -11.063,-22.124 z"
           id="path2538" />
        <path
           d="m 251.539,140.80177 c -1.229,6.283 -2.595,17.618 -8.058,21.852 -2.322,1.638 -4.644,3.278 -7.102,4.916 -9.833,6.693 -19.667,12.974 -24.173,29.09 -0.956,3.415 -0.136,7.102 0.684,10.516 2.458,9.833 9.423,20.486 14.886,26.769 0,0.273 1.093,0.956 1.093,1.229 4.507,5.327 5.873,6.829 22.944,10.652 l -0.41,1.913 c -10.243,-2.731 -18.71,-5.189 -24.037,-11.336 0,-0.136 -0.956,-1.093 -0.956,-1.093 -5.736,-6.556 -12.702,-17.481 -15.296,-27.724 -0.956,-4.098 -1.775,-7.238 -0.683,-11.473 4.643,-16.661 14.75,-23.217 24.993,-30.182 2.322,-1.502 5.053,-2.869 7.238,-4.644 4.233,-3.14 6.554,-12.701 8.877,-20.485 z"
           id="path2540" />
        <path
           d="m 255.90625,166.74951 c 0.137,7.102 -0.55625,10.66475 1.21875,15.71875 1.092,3.004 4.782,7.1015 5.875,11.0625 1.502,5.327 3.138,11.19901 3,14.75001 0,4.09799 -0.25625,11.74249 -2.03125,19.93749 -1.35362,6.77108 -4.47323,12.58153 -9.71875,15.875 -5.37327,-1.10644 -11.68224,-2.99521 -15.40625,-6.1875 -7.238,-6.282 -13.64875,-16.7865 -14.46875,-25.9375 -0.682,-7.51099 6.27275,-18.5885 15.96875,-24.1875 8.194,-4.78 10.1,-10.22775 11.875,-18.96875 -2.458,7.648 -4.7665,14.05925 -12.6875,18.15625 -11.472,6.009 -17.3585,16.09626 -16.8125,25.65625 0.819,12.291 5.7415,20.6195 15.4375,27.3125 4.097,2.868 11.75125,5.89875 16.53125,6.71875 v -0.625 c 3.62493,-0.67888 8.31818,-6.63267 10.65625,-14.6875 2.049,-7.238 2.85675,-16.502 2.71875,-22.37499 -0.137,-3.414 -1.643,-10.80801 -4.375,-17.50001 -1.502,-3.687 -3.8095,-7.37375 -5.3125,-9.96875 -1.637,-2.597 -1.64875,-8.195 -2.46875,-14.75 z"
           id="path2542" />
        <path
           d="m 255.09375,193.53076 c 0.136,4.78 2.056,10.90451 2.875,17.18751 0.684,4.64399 0.387,9.30824 0.25,13.40624 -0.13495,4.74323 -1.7152,13.24218 -3.875,17.375 -2.03673,-0.93403 -2.83294,-1.99922 -4.15625,-3.71875 -1.638,-2.322 -2.75075,-4.644 -3.84375,-7.375 -0.819,-2.049 -1.7765,-4.394 -2.1875,-7.125 -0.546,-4.097 -0.393,-10.5065 4.25,-17.06249 3.551,-5.19001 4.36475,-5.58476 5.59375,-11.59376 -1.64,5.326 -2.8625,5.869 -6.6875,10.37501 -4.233,4.917 -4.9375,12.15924 -4.9375,18.03124 0,2.459 0.9805,5.18725 1.9375,7.78125 1.092,2.732 2.02925,5.452 3.53125,7.5 2.25796,3.32082 5.14798,5.20922 6.5625,5.5625 0.009,0.002 0.022,-0.002 0.0312,0 0.0303,0.007 0.0649,0.0255 0.0937,0.0312 v -0.15625 c 2.64982,-2.95437 4.24444,-5.88934 4.78125,-8.84375 0.683,-3.551 0.84,-7.10975 1.25,-11.34375 0.409,-3.551 0.11225,-8.334 -0.84375,-13.24999 -1.365,-6.146 -3.669,-12.41226 -4.625,-16.78126 z"
           id="path2544" />
        <path
           d="m 255.499,135.06577 c 0.137,7.101 0.683,20.35 2.595,25.539 0.546,1.775 5.599,9.56 9.149,18.983 2.459,6.556 3.005,12.565 3.415,14.34 1.639,7.785 -0.41,20.896 -3.142,33.324 -1.365,6.692 -6.009,15.023 -11.335,18.301 l -1.092,1.912 c 3.005,-0.137 10.379,-7.375 12.974,-16.389 4.371,-15.296 6.146,-22.398 4.098,-39.333 -0.273,-1.64 -0.956,-7.238 -3.551,-13.248 -3.824,-9.151 -9.287,-17.891 -9.969,-19.667 -1.23,-2.867 -2.869,-15.295 -3.142,-23.762 z"
           id="path2550" />
        <path
           d="m 258.06151,125.35303 c -0.40515,7.29812 -0.51351,9.98574 0.85149,15.31174 1.502,5.873 9.151,14.34 12.292,24.037 6.009,18.574 4.507,42.884 0.136,61.867 -1.638,6.691 -9.424,16.389 -17.208,19.529 l 5.736,1.366 c 3.141,-0.137 11.198,-7.648 14.34,-16.252 5.052,-13.521 6.009,-29.636 3.96,-46.571 -0.137,-1.639 -2.869,-16.252 -5.463,-22.398 -3.688,-9.15 -10.244,-17.345 -10.926,-19.119 -1.228,-3.005 -3.92651,-9.24362 -3.71849,-17.77074 z"
           id="path2552" />
        <rect
           width="0.550412"
           height="126.01891"
           x="253.71959"
           y="120.21686"
           id="rect2556" />
      </g>
    </g>
  </g>
</svg>
