<?xml version="1.0" encoding="UTF-8" standalone="no"?>
<svg
   xmlns:dc="http://purl.org/dc/elements/1.1/"
   xmlns:cc="http://creativecommons.org/ns#"
   xmlns:rdf="http://www.w3.org/1999/02/22-rdf-syntax-ns#"
   xmlns:svg="http://www.w3.org/2000/svg"
   xmlns="http://www.w3.org/2000/svg"
   xmlns:xlink="http://www.w3.org/1999/xlink"
   xmlns:sodipodi="http://sodipodi.sourceforge.net/DTD/sodipodi-0.dtd"
   xmlns:inkscape="http://www.inkscape.org/namespaces/inkscape"
   width="1920"
   height="1080"
   viewBox="0 0 508 285.75"
   version="1.1"
   id="svg8"
   sodipodi:docname="13_Open_Access.svg"
   inkscape:version="1.0.2 (e86c870879, 2021-01-15)"
   inkscape:export-filename="/home/neil/Pirate_Party/13_Open_Access.png"
   inkscape:export-xdpi="94.396202"
   inkscape:export-ydpi="94.396202">
  <sodipodi:namedview
     pagecolor="#ffffff"
     bordercolor="#666666"
     borderopacity="1"
     objecttolerance="10"
     gridtolerance="10"
     guidetolerance="10"
     inkscape:pageopacity="0"
     inkscape:pageshadow="2"
     inkscape:window-width="1916"
     inkscape:window-height="1057"
     id="namedview1030"
     showgrid="false"
     inkscape:zoom="0.48908219"
     inkscape:cx="915.38891"
     inkscape:cy="492.52183"
     inkscape:window-x="0"
     inkscape:window-y="19"
     inkscape:window-maximized="0"
     inkscape:current-layer="svg8" />
  <defs
     id="defs2">
    <linearGradient
       inkscape:collect="always"
       id="linearGradient1194">
      <stop
         style="stop-color:#ffffff;stop-opacity:1;"
         offset="0"
         id="stop1190" />
      <stop
         style="stop-color:#ffffff;stop-opacity:0;"
         offset="1"
         id="stop1192" />
    </linearGradient>
    <linearGradient
       id="linearGradient2016">
      <stop
         style="stop-color:#87aade;stop-opacity:1;"
         offset="0"
         id="stop2012" />
      <stop
         style="stop-color:#87aade;stop-opacity:0;"
         offset="1"
         id="stop2014" />
    </linearGradient>
    <rect
       x="532.19265"
       y="276.97804"
       width="26.326245"
       height="7.3602619"
       id="rect1965" />
    <linearGradient
       id="linearGradient2137">
      <stop
         style="stop-color:#c6afe9;stop-opacity:1;"
         offset="0"
         id="stop2133" />
      <stop
         style="stop-color:#c6afe9;stop-opacity:0;"
         offset="1"
         id="stop2135" />
    </linearGradient>
    <linearGradient
       id="linearGradient1574">
      <stop
         style="stop-color:#008000;stop-opacity:1;"
         offset="0"
         id="stop1570" />
      <stop
         style="stop-color:#008000;stop-opacity:0;"
         offset="1"
         id="stop1572" />
    </linearGradient>
    <linearGradient
       id="linearGradient1329">
      <stop
         style="stop-color:#dd55ff;stop-opacity:1;"
         offset="0"
         id="stop1325" />
      <stop
         style="stop-color:#dd55ff;stop-opacity:0;"
         offset="1"
         id="stop1327" />
    </linearGradient>
    <linearGradient
       id="linearGradient1098">
      <stop
         style="stop-color:#333333;stop-opacity:1;"
         offset="0"
         id="stop1094" />
      <stop
         style="stop-color:#333333;stop-opacity:0;"
         offset="1"
         id="stop1096" />
    </linearGradient>
    <linearGradient
       id="linearGradient972">
      <stop
         style="stop-color:#0073e3;stop-opacity:1;"
         offset="0"
         id="stop968" />
      <stop
         style="stop-color:#0073e3;stop-opacity:0;"
         offset="1"
         id="stop970" />
    </linearGradient>
    <linearGradient
       id="linearGradient923">
      <stop
         style="stop-color:#4d4d4d;stop-opacity:1;"
         offset="0"
         id="stop919" />
      <stop
         style="stop-color:#4d4d4d;stop-opacity:0;"
         offset="1"
         id="stop921" />
    </linearGradient>
    <rect
       x="12.335762"
       y="257.75071"
       width="527.68318"
       height="48.916667"
       id="rect4727" />
    <rect
       x="8.6668482"
       y="254.87101"
       width="484.9538"
       height="28.510533"
       id="rect4721" />
    <rect
       x="146.88943"
       y="60.142022"
       width="409.80937"
       height="38.475454"
       id="rect1397" />
    <radialGradient
       xlink:href="#linearGradient923"
       id="radialGradient925"
       cx="254"
       cy="142.875"
       fx="254"
       fy="142.875"
       r="254"
       gradientTransform="matrix(1,0,0,0.5625,0,62.507812)"
       gradientUnits="userSpaceOnUse" />
    <radialGradient
       xlink:href="#linearGradient972"
       id="radialGradient974"
       cx="253.99994"
       cy="142.875"
       fx="253.99994"
       fy="142.875"
       r="254"
       gradientTransform="matrix(1,0,0,0.5625,6.1035156e-5,62.507812)"
       gradientUnits="userSpaceOnUse" />
    <clipPath
       clipPathUnits="userSpaceOnUse"
       id="clipPath5089">
      <g
         id="g5095"
         transform="translate(-0.24773263,0.00231014)">
        <path
           style="fill:none;stroke:#000000;stroke-width:0.264583px;stroke-linecap:butt;stroke-linejoin:miter;stroke-opacity:1"
           d="m 462.71013,185.04538 -1.81322,-2.20784 -1.67651,-3.3844 -3.55924,-2.5315 -1.65323,-1.40896 -2.78032,-1.13576 -3.78976,-1.84125 -2.85509,-1.99313 -3.12285,-1.97514 -1.23204,-2.30752 0.003,-4.51316 -1.14348,-4.03184 -1.38676,-3.05336"
           id="path5091" />
        <path
           style="fill:none;stroke:#000000;stroke-width:0.264583px;stroke-linecap:butt;stroke-linejoin:miter;stroke-opacity:1"
           d="m 437.70063,154.66152 -1.75237,-7.21176 6.16276,-1.96616 11.00426,-1.3234 2.51378,-0.41053 1.0469,-2.58298 -1.36123,-2.99488 -4.68863,-4.093 -7.12647,-4.00684 -3.56402,-2.54237 -6.52393,-8.83037 -5.2619,-5.34698 -7.05276,-6.99942 -1.27299,-0.60872 -12.51686,0.1766 -0.82378,4.4944 -6.09772,8.03517 -5.6792,8.64673 -1.53858,3.08666 -4.40428,3.90014 -2.73407,3.4416 -0.76494,2.52602 0.21482,1.40712 -9.03827,12.07522 -0.29951,1.93695 1.18057,-0.0567 1.0872,-0.61424 6.36159,-8.09313 -1.15973,5.55084 -1.43441,6.53757 0.15658,4.74032 -1.52442,1.87068 -0.19246,2.5513 0.26321,1.24681 1.28503,-2.19814 0.60388,-0.21024 v 1.59257 l -0.86471,4.75545 -2.55754,1.62605 -0.93033,5.7029 -9.29743,4.63233 93.59146,-0.0597"
           id="path5093" />
      </g>
    </clipPath>
    <clipPath
       clipPathUnits="userSpaceOnUse"
       id="clipPath5203">
      <path
         style="fill:none;stroke:#000000;stroke-width:0.264583px;stroke-linecap:butt;stroke-linejoin:miter;stroke-opacity:1"
         d="m 368.87094,185.1074 9.29743,-4.63233 0.93033,-5.7029 2.55754,-1.62605 0.86471,-6.34802 -0.22585,-4.53227 -0.36597,-3.46846 2.59413,-12.08841 -6.36159,8.09313 -2.26777,0.67094 0.29951,-1.93695 9.03827,-12.07522 0.55013,-3.93314 7.13835,-7.34174 9.1214,-14.29771 4.1941,-5.47085 0.82378,-4.4944 12.51685,-0.1766 20.11159,21.78549 10.69049,6.54921 4.68863,4.093 1.36123,2.99488 -1.0469,2.58298 -13.51804,1.73393 -6.16276,1.96616 1.75236,7.21176 3.75928,13.90588 5.97795,3.96827 6.57008,2.97701 5.67137,6.89141 1.21761,0.43345 1.81322,2.20784 z"
         id="path5205" />
    </clipPath>
    <radialGradient
       xlink:href="#linearGradient1098"
       id="radialGradient1100"
       cx="254"
       cy="142.875"
       fx="254"
       fy="142.875"
       r="254"
       gradientTransform="matrix(1,0,0,0.5625,0,62.507812)"
       gradientUnits="userSpaceOnUse" />
    <radialGradient
       xlink:href="#linearGradient1329"
       id="radialGradient1331"
       cx="254.00006"
       cy="142.875"
       fx="254.00006"
       fy="142.875"
       r="254"
       gradientTransform="matrix(1,0,0,0.5625,0,62.507812)"
       gradientUnits="userSpaceOnUse" />
    <radialGradient
       xlink:href="#linearGradient1574"
       id="radialGradient1576"
       cx="254.00006"
       cy="142.875"
       fx="254.00006"
       fy="142.875"
       r="254"
       gradientTransform="matrix(1,0,0,0.5625,0,62.507812)"
       gradientUnits="userSpaceOnUse" />
    <radialGradient
       xlink:href="#linearGradient2137"
       id="radialGradient2139"
       cx="254"
       cy="142.875"
       fx="254"
       fy="142.875"
       r="254"
       gradientTransform="matrix(1,0,0,0.5625,0,62.507812)"
       gradientUnits="userSpaceOnUse" />
    <linearGradient
       x1="348.2829"
       y1="0"
       x2="782.05951"
       y2="786.48322"
       id="a"
       gradientUnits="userSpaceOnUse">
      <stop
         stop-color="#72B4F5"
         offset="0%"
         id="stop1935" />
      <stop
         stop-color="#356EBF"
         offset="100%"
         id="stop1937" />
    </linearGradient>
    <radialGradient
       xlink:href="#linearGradient2016"
       id="radialGradient2018"
       cx="254.00006"
       cy="142.875"
       fx="254.00006"
       fy="142.875"
       r="254"
       gradientTransform="matrix(1,0,0,0.5625,0,62.507812)"
       gradientUnits="userSpaceOnUse" />
    <radialGradient
       inkscape:collect="always"
       xlink:href="#linearGradient1194"
       id="radialGradient1196"
       cx="254.00006"
       cy="142.875"
       fx="254.00006"
       fy="142.875"
       r="254"
       gradientTransform="matrix(1,0,0,0.5625,0,62.507812)"
       gradientUnits="userSpaceOnUse" />
  </defs>
  <metadata
     id="metadata5">
    <rdf:RDF>
      <cc:Work
         rdf:about="">
        <dc:format>image/svg+xml</dc:format>
        <dc:type
           rdf:resource="http://purl.org/dc/dcmitype/StillImage" />
        <dc:title />
      </cc:Work>
    </rdf:RDF>
  </metadata>
  <rect
     style="fill:#f9f9f9;fill-opacity:1;stroke-width:10.2955"
     id="rect861"
     width="508"
     height="285.75"
     x="-2.5e-13"
     y="0" />
  <rect
     style="fill:url(#radialGradient1196);fill-opacity:1;stroke-width:10.2955"
     id="rect857"
     width="508"
     height="285.75"
     x="6.1035156e-05"
     y="0" />
  <text
     xml:space="preserve"
     id="text1395"
     style="font-style:normal;font-variant:normal;font-weight:bold;font-stretch:normal;font-size:33.5139px;line-height:1.25;font-family:sans-serif;-inkscape-font-specification:'sans-serif Bold';white-space:pre;shape-inside:url(#rect1397);fill:#ffffff;stroke-width:1;stroke-miterlimit:4;stroke-dasharray:none;"
     transform="translate(0.83891663,-51.323137)"><tspan
       x="146.88867"
       y="88.763449"><tspan
         style="fill:#000000">Open Access</tspan></tspan></text>
  <g
     id="g1515"
     transform="matrix(0.004,0,0,0.004,483,25)">
    <circle
       id="circle1498"
       cx="0"
       cy="0"
       r="5000" />
    <circle
       r="4500"
       fill="#ffffff"
       id="circle1500"
       cx="0"
       cy="0" />
    <path
       d="m -1944,1560 v -4207 c -187,-12 -343,0 -441,29 -28,-61 144,-155 441,-245 v -810 h 438 v 700 c 1578,-327 4724,-344 4741,2384 11,1926 -3401,1632 -4390,2257 -1076,678 -593,2113 -593,2113 0,0 -651,-1344 -196,-2221 z m 438,-469 C -1044,777 -251,398 -98,-327 210,-1785 -717,-2390 -1506,-2580 Z"
       id="path1502" />
  </g>
  <text
     xml:space="preserve"
     id="text4719"
     style="font-size:25.4px;line-height:1.25;font-family:sans-serif;white-space:pre;shape-inside:url(#rect4721);"
     transform="translate(6.1035156e-5)" />
  <text
     xml:space="preserve"
     id="text4725"
     style="font-size:31.75px;line-height:1.25;font-family:sans-serif;white-space:pre;shape-inside:url(#rect4727);fill:#000000;"
     transform="translate(61.784744,-23.047036)"><tspan
       x="12.335938"
       y="284.8645"><tspan
         style="font-style:normal;font-variant:normal;font-weight:bold;font-stretch:normal;font-size:31.75px;font-family:sans-serif;-inkscape-font-specification:'sans-serif Bold';fill:#000000">6pm, Monday March 8th</tspan></tspan></text>
  <g
     id="layer2"
     style="display:inline" />
  <style
     type="text/css"
     id="style2136">
	.st0{fill:#FFFFFF;}
	.st1{fill:#003366;}
	.st2{fill:#EA7E20;}
</style>
  <g
     id="#ffffffff"
     transform="matrix(0.11759259,0,0,0.11759259,78.241773,125.39557)" />
  <text
     xml:space="preserve"
     id="text1963"
     style="line-height:1.25;font-family:sans-serif;font-size:3.88055556px;white-space:pre;shape-inside:url(#rect1965);" />
  <g
     id="g1121"
     transform="matrix(0.15331436,0,0,0.15331436,204.93879,66.217352)">
    <g
       stroke="#f68212"
       stroke-width="104.764"
       fill="none"
       id="g1107">
      <path
         d="m 111.387,308.135 v -35.727 a 209.21,209.214 0 0 1 418.42,0 v 258.426"
         id="path1103" />
      <circle
         cx="320.004"
         cy="680.729"
         r="256.08301"
         id="circle1105" />
    </g>
    <circle
       fill="#f68212"
       cx="321.01001"
       cy="681.659"
       r="86.428703"
       id="circle1109" />
  </g>
</svg>
