<?xml version="1.0" encoding="UTF-8" standalone="no"?>
<svg
   xmlns:dc="http://purl.org/dc/elements/1.1/"
   xmlns:cc="http://creativecommons.org/ns#"
   xmlns:rdf="http://www.w3.org/1999/02/22-rdf-syntax-ns#"
   xmlns:svg="http://www.w3.org/2000/svg"
   xmlns="http://www.w3.org/2000/svg"
   xmlns:xlink="http://www.w3.org/1999/xlink"
   xmlns:sodipodi="http://sodipodi.sourceforge.net/DTD/sodipodi-0.dtd"
   xmlns:inkscape="http://www.inkscape.org/namespaces/inkscape"
   width="1920"
   height="1080"
   viewBox="0 0 508 285.75"
   version="1.1"
   id="svg8"
   sodipodi:docname="15_Pirate_Party_AGM.svg"
   inkscape:version="1.0.2 (e86c870879, 2021-01-15)"
   inkscape:export-filename="/home/neil/Pirate_Party/15_Pirate_Party_AGM.png"
   inkscape:export-xdpi="94"
   inkscape:export-ydpi="94">
  <sodipodi:namedview
     pagecolor="#ffffff"
     bordercolor="#666666"
     borderopacity="1"
     objecttolerance="10"
     gridtolerance="10"
     guidetolerance="10"
     inkscape:pageopacity="0"
     inkscape:pageshadow="2"
     inkscape:window-width="1916"
     inkscape:window-height="1057"
     id="namedview1964"
     showgrid="false"
     inkscape:zoom="0.69166667"
     inkscape:cx="918.14402"
     inkscape:cy="522.71732"
     inkscape:window-x="0"
     inkscape:window-y="19"
     inkscape:window-maximized="0"
     inkscape:current-layer="svg8" />
  <defs
     id="defs2">
    <linearGradient
       inkscape:collect="always"
       id="linearGradient4100">
      <stop
         style="stop-color:#ff5555;stop-opacity:1;"
         offset="0"
         id="stop4096" />
      <stop
         style="stop-color:#ff5555;stop-opacity:0;"
         offset="1"
         id="stop4098" />
    </linearGradient>
    <rect
       x="370.15551"
       y="100.03442"
       width="134.94999"
       height="36.51432"
       id="rect903" />
    <rect
       x="35.906688"
       y="88.021642"
       width="146.38975"
       height="34.235389"
       id="rect893" />
    <linearGradient
       id="linearGradient1556">
      <stop
         style="stop-color:#ffffff;stop-opacity:1;"
         offset="0"
         id="stop1552" />
      <stop
         style="stop-color:#ffffff;stop-opacity:0;"
         offset="1"
         id="stop1554" />
    </linearGradient>
    <linearGradient
       id="linearGradient1329">
      <stop
         style="stop-color:#dd55ff;stop-opacity:1;"
         offset="0"
         id="stop1325" />
      <stop
         style="stop-color:#dd55ff;stop-opacity:0;"
         offset="1"
         id="stop1327" />
    </linearGradient>
    <linearGradient
       id="linearGradient1098">
      <stop
         style="stop-color:#333333;stop-opacity:1;"
         offset="0"
         id="stop1094" />
      <stop
         style="stop-color:#333333;stop-opacity:0;"
         offset="1"
         id="stop1096" />
    </linearGradient>
    <linearGradient
       id="linearGradient972">
      <stop
         style="stop-color:#0073e3;stop-opacity:1;"
         offset="0"
         id="stop968" />
      <stop
         style="stop-color:#0073e3;stop-opacity:0;"
         offset="1"
         id="stop970" />
    </linearGradient>
    <linearGradient
       id="linearGradient923">
      <stop
         style="stop-color:#4d4d4d;stop-opacity:1;"
         offset="0"
         id="stop919" />
      <stop
         style="stop-color:#4d4d4d;stop-opacity:0;"
         offset="1"
         id="stop921" />
    </linearGradient>
    <rect
       x="12.335762"
       y="257.75071"
       width="540.68577"
       height="53.288908"
       id="rect4727" />
    <rect
       x="8.6668482"
       y="254.87101"
       width="484.9538"
       height="28.510533"
       id="rect4721" />
    <rect
       x="146.88943"
       y="60.142022"
       width="522.9919"
       height="115.62381"
       id="rect1397" />
    <radialGradient
       xlink:href="#linearGradient923"
       id="radialGradient925"
       cx="254"
       cy="142.875"
       fx="254"
       fy="142.875"
       r="254"
       gradientTransform="matrix(1,0,0,0.5625,0,62.507812)"
       gradientUnits="userSpaceOnUse" />
    <radialGradient
       xlink:href="#linearGradient972"
       id="radialGradient974"
       cx="253.99994"
       cy="142.875"
       fx="253.99994"
       fy="142.875"
       r="254"
       gradientTransform="matrix(1,0,0,0.5625,6.1035156e-5,62.507812)"
       gradientUnits="userSpaceOnUse" />
    <clipPath
       clipPathUnits="userSpaceOnUse"
       id="clipPath5089">
      <g
         id="g5095"
         transform="translate(-0.24773263,0.00231014)">
        <path
           style="fill:none;stroke:#000000;stroke-width:0.264583px;stroke-linecap:butt;stroke-linejoin:miter;stroke-opacity:1"
           d="m 462.71013,185.04538 -1.81322,-2.20784 -1.67651,-3.3844 -3.55924,-2.5315 -1.65323,-1.40896 -2.78032,-1.13576 -3.78976,-1.84125 -2.85509,-1.99313 -3.12285,-1.97514 -1.23204,-2.30752 0.003,-4.51316 -1.14348,-4.03184 -1.38676,-3.05336"
           id="path5091" />
        <path
           style="fill:none;stroke:#000000;stroke-width:0.264583px;stroke-linecap:butt;stroke-linejoin:miter;stroke-opacity:1"
           d="m 437.70063,154.66152 -1.75237,-7.21176 6.16276,-1.96616 11.00426,-1.3234 2.51378,-0.41053 1.0469,-2.58298 -1.36123,-2.99488 -4.68863,-4.093 -7.12647,-4.00684 -3.56402,-2.54237 -6.52393,-8.83037 -5.2619,-5.34698 -7.05276,-6.99942 -1.27299,-0.60872 -12.51686,0.1766 -0.82378,4.4944 -6.09772,8.03517 -5.6792,8.64673 -1.53858,3.08666 -4.40428,3.90014 -2.73407,3.4416 -0.76494,2.52602 0.21482,1.40712 -9.03827,12.07522 -0.29951,1.93695 1.18057,-0.0567 1.0872,-0.61424 6.36159,-8.09313 -1.15973,5.55084 -1.43441,6.53757 0.15658,4.74032 -1.52442,1.87068 -0.19246,2.5513 0.26321,1.24681 1.28503,-2.19814 0.60388,-0.21024 v 1.59257 l -0.86471,4.75545 -2.55754,1.62605 -0.93033,5.7029 -9.29743,4.63233 93.59146,-0.0597"
           id="path5093" />
      </g>
    </clipPath>
    <clipPath
       clipPathUnits="userSpaceOnUse"
       id="clipPath5203">
      <path
         style="fill:none;stroke:#000000;stroke-width:0.264583px;stroke-linecap:butt;stroke-linejoin:miter;stroke-opacity:1"
         d="m 368.87094,185.1074 9.29743,-4.63233 0.93033,-5.7029 2.55754,-1.62605 0.86471,-6.34802 -0.22585,-4.53227 -0.36597,-3.46846 2.59413,-12.08841 -6.36159,8.09313 -2.26777,0.67094 0.29951,-1.93695 9.03827,-12.07522 0.55013,-3.93314 7.13835,-7.34174 9.1214,-14.29771 4.1941,-5.47085 0.82378,-4.4944 12.51685,-0.1766 20.11159,21.78549 10.69049,6.54921 4.68863,4.093 1.36123,2.99488 -1.0469,2.58298 -13.51804,1.73393 -6.16276,1.96616 1.75236,7.21176 3.75928,13.90588 5.97795,3.96827 6.57008,2.97701 5.67137,6.89141 1.21761,0.43345 1.81322,2.20784 z"
         id="path5205" />
    </clipPath>
    <radialGradient
       xlink:href="#linearGradient1098"
       id="radialGradient1100"
       cx="254"
       cy="142.875"
       fx="254"
       fy="142.875"
       r="254"
       gradientTransform="matrix(1,0,0,0.5625,0,62.507812)"
       gradientUnits="userSpaceOnUse" />
    <radialGradient
       xlink:href="#linearGradient1329"
       id="radialGradient1331"
       cx="254.00006"
       cy="142.875"
       fx="254.00006"
       fy="142.875"
       r="254"
       gradientTransform="matrix(1,0,0,0.5625,0,62.507812)"
       gradientUnits="userSpaceOnUse" />
    <radialGradient
       xlink:href="#linearGradient1556"
       id="radialGradient1558"
       cx="254"
       cy="142.875"
       fx="254"
       fy="142.875"
       r="254"
       gradientTransform="matrix(1,0,0,0.5625,0,62.507812)"
       gradientUnits="userSpaceOnUse" />
    <radialGradient
       inkscape:collect="always"
       xlink:href="#linearGradient4100"
       id="radialGradient4102"
       cx="254.00006"
       cy="142.875"
       fx="254.00006"
       fy="142.875"
       r="254"
       gradientTransform="matrix(1,0,0,0.5625,0,62.507812)"
       gradientUnits="userSpaceOnUse" />
  </defs>
  <metadata
     id="metadata5">
    <rdf:RDF>
      <cc:Work
         rdf:about="">
        <dc:format>image/svg+xml</dc:format>
        <dc:type
           rdf:resource="http://purl.org/dc/dcmitype/StillImage" />
        <dc:title />
      </cc:Work>
    </rdf:RDF>
  </metadata>
  <rect
     style="fill:#ff0000;fill-opacity:1;stroke-width:10.2955"
     id="rect861"
     width="508"
     height="285.75"
     x="-2.5e-13"
     y="0" />
  <rect
     style="fill:url(#radialGradient4102);fill-opacity:1;stroke-width:10.2955"
     id="rect857"
     width="508"
     height="285.75"
     x="6.1035156e-05"
     y="0" />
  <text
     xml:space="preserve"
     id="text1395"
     style="font-style:normal;font-variant:normal;font-weight:bold;font-stretch:normal;font-size:33.5139px;line-height:1.25;font-family:sans-serif;-inkscape-font-specification:'sans-serif Bold';white-space:pre;shape-inside:url(#rect1397);fill:#ffffff;"
     transform="translate(-29.675413,-53.968972)"><tspan
       x="146.88867"
       y="88.763449"><tspan
         style="fill:#ffffff">Pirate Party AGM</tspan></tspan></text>
  <g
     id="g1515"
     transform="matrix(0.004,0,0,0.004,483,25)">
    <circle
       id="circle1498"
       cx="0"
       cy="0"
       r="5000" />
    <circle
       r="4500"
       fill="#ffffff"
       id="circle1500"
       cx="0"
       cy="0" />
    <path
       d="m -1944,1560 v -4207 c -187,-12 -343,0 -441,29 -28,-61 144,-155 441,-245 v -810 h 438 v 700 c 1578,-327 4724,-344 4741,2384 11,1926 -3401,1632 -4390,2257 -1076,678 -593,2113 -593,2113 0,0 -651,-1344 -196,-2221 z m 438,-469 C -1044,777 -251,398 -98,-327 210,-1785 -717,-2390 -1506,-2580 Z"
       id="path1502" />
  </g>
  <text
     xml:space="preserve"
     id="text4719"
     style="font-size:25.4px;line-height:1.25;font-family:sans-serif;white-space:pre;shape-inside:url(#rect4721);"
     transform="translate(6.1035156e-5)" />
  <text
     xml:space="preserve"
     id="text4725"
     style="font-size:31.75px;line-height:1.25;font-family:sans-serif;white-space:pre;shape-inside:url(#rect4727);fill:#ffffff;"
     transform="translate(52.958251,-23.047036)"><tspan
       x="12.335938"
       y="284.8645"><tspan
         style="font-style:normal;font-variant:normal;font-weight:bold;font-stretch:normal;font-size:31.75px;font-family:sans-serif;-inkscape-font-specification:'sans-serif Bold';fill:#ffffff">6pm, Monday March 29th</tspan></tspan></text>
  <g
     id="layer2"
     style="display:inline" />
  <style
     type="text/css"
     id="style2136">
	.st0{fill:#FFFFFF;}
	.st1{fill:#003366;}
	.st2{fill:#EA7E20;}
</style>
  <g
     id="g4"
     transform="matrix(1.8428134,0,0,1.8548746,160.81696,46.367729)"
     style="fill:#ffffff">
    <path
       d="m 79.243,53.828 c -0.101,-0.226 -0.208,-0.32 -0.474,-0.32 -4.106,0.011 -8.212,0.007 -12.318,0.008 -0.106,0 -0.212,0.01 -0.325,0.015 v 6.485 h 0.381 c 1.019,0 2.037,0.009 3.056,-0.005 0.246,-0.004 0.357,0.063 0.429,0.309 0.466,1.601 0.949,3.196 1.426,4.795 0.027,0.091 0.043,0.184 0.065,0.288 H 26.042 c 0.005,-0.058 0.002,-0.091 0.012,-0.122 0.503,-1.691 1.01,-3.383 1.507,-5.076 0.055,-0.185 0.168,-0.19 0.317,-0.19 0.834,0.004 1.668,0.002 2.502,0.002 h 1.011 v -6.5 h -0.38 c -4.074,0 -8.147,0.003 -12.222,-0.008 -0.279,0 -0.412,0.08 -0.526,0.339 -2.508,5.664 -5.024,11.324 -7.542,16.985 -0.278,0.625 -0.568,1.247 -0.854,1.869 H 87.622 C 84.83,66.41 82.033,60.12 79.243,53.828 Z"
       id="path6"
       style="clip-rule:evenodd;fill-rule:evenodd;fill:#ffffff" />
    <path
       d="m 9.867,75.345 v 17.118 c 0.142,-0.004 0.283,-0.01 0.421,-0.01 h 77.58 c 0.007,-0.302 0.021,-0.448 0.021,-0.595 0,-5.504 -0.008,-11.01 -0.008,-16.514 H 9.867 Z"
       id="path8"
       style="clip-rule:evenodd;fill-rule:evenodd;fill:#ffffff" />
    <path
       d="M 91.263,11.595 H 71.616 v 17.118 c 0.036,-0.004 0.071,-0.01 0.106,-0.01 h 19.536 c 0.002,-0.302 0.006,-0.448 0.006,-0.595 0.001,-5.504 -10e-4,-11.009 -10e-4,-16.513 z"
       id="path10"
       style="clip-rule:evenodd;fill-rule:evenodd;fill:#ffffff" />
    <path
       d="m 63.905,37.26 c -0.198,0 -0.371,0.019 -0.541,-0.003 -0.493,-0.066 -0.88,0.121 -1.277,0.406 -3.692,2.657 -7.396,5.298 -11.098,7.943 -0.789,0.563 -1.615,1.049 -2.559,1.309 -2.144,0.591 -4.098,-0.508 -4.568,-2.677 -0.46,-2.121 -0.064,-4.09 1.387,-5.778 0.329,-0.381 0.664,-0.758 1.036,-1.181 -4.265,0 -8.46,0 -12.667,0 0,8.666 0,17.313 0,25.968 10.106,0 20.185,0 30.287,0 0,-8.657 0,-17.297 0,-25.987 z"
       id="path12"
       style="clip-rule:evenodd;fill-rule:evenodd;fill:#ffffff" />
    <path
       d="m 47.041,35.101 c 0.22,0.002 0.267,-0.119 0.322,-0.281 0.41,-1.199 0.852,-2.387 1.224,-3.598 0.219,-0.711 0.674,-1.141 1.316,-1.423 1.001,-0.442 2.058,-0.613 3.141,-0.5 0.476,0.048 0.96,0.186 1.395,0.381 0.515,0.23 0.656,0.725 0.409,1.234 -0.13,0.268 -0.311,0.523 -0.51,0.747 -2.55,2.835 -5.106,5.663 -7.661,8.495 -0.129,0.144 -0.27,0.294 -0.347,0.466 -0.453,1.021 -0.586,2.085 -0.305,3.172 0.242,0.933 0.924,1.335 1.833,1.021 0.604,-0.21 1.2,-0.513 1.721,-0.883 5.081,-3.604 10.145,-7.229 15.209,-10.855 0.129,-0.092 0.243,-0.248 0.295,-0.398 0.313,-0.889 0.596,-1.788 0.91,-2.676 0.072,-0.205 0.199,-0.409 0.351,-0.565 0.917,-0.937 1.845,-1.863 2.777,-2.784 0.157,-0.156 0.23,-0.311 0.23,-0.538 -0.007,-3.023 -0.004,-6.045 -0.005,-9.068 0,-0.116 -0.011,-0.23 -0.018,-0.36 -0.124,-0.007 -0.221,-0.017 -0.315,-0.017 -3.412,-10e-4 -6.825,-0.003 -10.239,0.006 -0.171,0 -0.361,0.063 -0.511,0.152 -2.355,1.402 -4.708,2.808 -7.054,4.225 -1.509,0.913 -3.019,1.828 -4.506,2.777 -1.315,0.84 -2.289,2 -2.85,3.455 -0.556,1.444 -1.035,2.917 -1.537,4.383 -0.382,1.115 -0.747,2.236 -1.134,3.398 0.101,0.015 0.151,0.029 0.203,0.029 1.886,0 3.771,-0.004 5.656,0.005 z"
       id="path14"
       style="clip-rule:evenodd;fill-rule:evenodd;fill:#ffffff" />
  </g>
  <text
     xml:space="preserve"
     id="text891"
     style="line-height:1.25;font-family:sans-serif;font-size:12.7px;white-space:pre;shape-inside:url(#rect893);" />
</svg>
