<?xml version="1.0" encoding="UTF-8" standalone="no"?>
<svg
   xmlns:dc="http://purl.org/dc/elements/1.1/"
   xmlns:cc="http://creativecommons.org/ns#"
   xmlns:rdf="http://www.w3.org/1999/02/22-rdf-syntax-ns#"
   xmlns:svg="http://www.w3.org/2000/svg"
   xmlns="http://www.w3.org/2000/svg"
   xmlns:xlink="http://www.w3.org/1999/xlink"
   xmlns:sodipodi="http://sodipodi.sourceforge.net/DTD/sodipodi-0.dtd"
   xmlns:inkscape="http://www.inkscape.org/namespaces/inkscape"
   width="1920"
   height="1080"
   viewBox="0 0 508 285.75"
   version="1.1"
   id="svg8"
   sodipodi:docname="Weekly_CTF_Training.svg"
   inkscape:version="1.0.1 (3bc2e813f5, 2020-09-07, custom)">
  <sodipodi:namedview
     pagecolor="#ffffff"
     bordercolor="#666666"
     borderopacity="1"
     objecttolerance="10"
     gridtolerance="10"
     guidetolerance="10"
     inkscape:pageopacity="0"
     inkscape:pageshadow="2"
     inkscape:window-width="1920"
     inkscape:window-height="1059"
     id="namedview986"
     showgrid="false"
     inkscape:zoom="0.69375"
     inkscape:cx="960"
     inkscape:cy="540"
     inkscape:window-x="0"
     inkscape:window-y="21"
     inkscape:window-maximized="0"
     inkscape:current-layer="svg8" />
  <defs
     id="defs2">
    <linearGradient
       inkscape:collect="always"
       id="linearGradient992">
      <stop
         style="stop-color:#ff0000;stop-opacity:1;"
         offset="0"
         id="stop988" />
      <stop
         style="stop-color:#ff0000;stop-opacity:0;"
         offset="1"
         id="stop990" />
    </linearGradient>
    <linearGradient
       id="linearGradient1329">
      <stop
         style="stop-color:#dd55ff;stop-opacity:1;"
         offset="0"
         id="stop1325" />
      <stop
         style="stop-color:#dd55ff;stop-opacity:0;"
         offset="1"
         id="stop1327" />
    </linearGradient>
    <linearGradient
       id="linearGradient1098">
      <stop
         style="stop-color:#333333;stop-opacity:1;"
         offset="0"
         id="stop1094" />
      <stop
         style="stop-color:#333333;stop-opacity:0;"
         offset="1"
         id="stop1096" />
    </linearGradient>
    <linearGradient
       id="linearGradient972">
      <stop
         style="stop-color:#0073e3;stop-opacity:1;"
         offset="0"
         id="stop968" />
      <stop
         style="stop-color:#0073e3;stop-opacity:0;"
         offset="1"
         id="stop970" />
    </linearGradient>
    <linearGradient
       id="linearGradient923">
      <stop
         style="stop-color:#4d4d4d;stop-opacity:1;"
         offset="0"
         id="stop919" />
      <stop
         style="stop-color:#4d4d4d;stop-opacity:0;"
         offset="1"
         id="stop921" />
    </linearGradient>
    <rect
       x="12.335762"
       y="257.75071"
       width="540.68577"
       height="53.288908"
       id="rect4727" />
    <rect
       x="8.6668482"
       y="254.87101"
       width="484.9538"
       height="28.510533"
       id="rect4721" />
    <rect
       x="146.88943"
       y="60.142022"
       width="522.9919"
       height="115.62381"
       id="rect1397" />
    <radialGradient
       xlink:href="#linearGradient923"
       id="radialGradient925"
       cx="254"
       cy="142.875"
       fx="254"
       fy="142.875"
       r="254"
       gradientTransform="matrix(1,0,0,0.5625,0,62.507812)"
       gradientUnits="userSpaceOnUse" />
    <radialGradient
       xlink:href="#linearGradient972"
       id="radialGradient974"
       cx="253.99994"
       cy="142.875"
       fx="253.99994"
       fy="142.875"
       r="254"
       gradientTransform="matrix(1,0,0,0.5625,6.1035156e-5,62.507812)"
       gradientUnits="userSpaceOnUse" />
    <clipPath
       clipPathUnits="userSpaceOnUse"
       id="clipPath5089">
      <g
         id="g5095"
         transform="translate(-0.24773263,0.00231014)">
        <path
           style="fill:none;stroke:#000000;stroke-width:0.264583px;stroke-linecap:butt;stroke-linejoin:miter;stroke-opacity:1"
           d="m 462.71013,185.04538 -1.81322,-2.20784 -1.67651,-3.3844 -3.55924,-2.5315 -1.65323,-1.40896 -2.78032,-1.13576 -3.78976,-1.84125 -2.85509,-1.99313 -3.12285,-1.97514 -1.23204,-2.30752 0.003,-4.51316 -1.14348,-4.03184 -1.38676,-3.05336"
           id="path5091" />
        <path
           style="fill:none;stroke:#000000;stroke-width:0.264583px;stroke-linecap:butt;stroke-linejoin:miter;stroke-opacity:1"
           d="m 437.70063,154.66152 -1.75237,-7.21176 6.16276,-1.96616 11.00426,-1.3234 2.51378,-0.41053 1.0469,-2.58298 -1.36123,-2.99488 -4.68863,-4.093 -7.12647,-4.00684 -3.56402,-2.54237 -6.52393,-8.83037 -5.2619,-5.34698 -7.05276,-6.99942 -1.27299,-0.60872 -12.51686,0.1766 -0.82378,4.4944 -6.09772,8.03517 -5.6792,8.64673 -1.53858,3.08666 -4.40428,3.90014 -2.73407,3.4416 -0.76494,2.52602 0.21482,1.40712 -9.03827,12.07522 -0.29951,1.93695 1.18057,-0.0567 1.0872,-0.61424 6.36159,-8.09313 -1.15973,5.55084 -1.43441,6.53757 0.15658,4.74032 -1.52442,1.87068 -0.19246,2.5513 0.26321,1.24681 1.28503,-2.19814 0.60388,-0.21024 v 1.59257 l -0.86471,4.75545 -2.55754,1.62605 -0.93033,5.7029 -9.29743,4.63233 93.59146,-0.0597"
           id="path5093" />
      </g>
    </clipPath>
    <clipPath
       clipPathUnits="userSpaceOnUse"
       id="clipPath5203">
      <path
         style="fill:none;stroke:#000000;stroke-width:0.264583px;stroke-linecap:butt;stroke-linejoin:miter;stroke-opacity:1"
         d="m 368.87094,185.1074 9.29743,-4.63233 0.93033,-5.7029 2.55754,-1.62605 0.86471,-6.34802 -0.22585,-4.53227 -0.36597,-3.46846 2.59413,-12.08841 -6.36159,8.09313 -2.26777,0.67094 0.29951,-1.93695 9.03827,-12.07522 0.55013,-3.93314 7.13835,-7.34174 9.1214,-14.29771 4.1941,-5.47085 0.82378,-4.4944 12.51685,-0.1766 20.11159,21.78549 10.69049,6.54921 4.68863,4.093 1.36123,2.99488 -1.0469,2.58298 -13.51804,1.73393 -6.16276,1.96616 1.75236,7.21176 3.75928,13.90588 5.97795,3.96827 6.57008,2.97701 5.67137,6.89141 1.21761,0.43345 1.81322,2.20784 z"
         id="path5205" />
    </clipPath>
    <radialGradient
       xlink:href="#linearGradient1098"
       id="radialGradient1100"
       cx="254"
       cy="142.875"
       fx="254"
       fy="142.875"
       r="254"
       gradientTransform="matrix(1,0,0,0.5625,0,62.507812)"
       gradientUnits="userSpaceOnUse" />
    <radialGradient
       xlink:href="#linearGradient1329"
       id="radialGradient1331"
       cx="254.00006"
       cy="142.875"
       fx="254.00006"
       fy="142.875"
       r="254"
       gradientTransform="matrix(1,0,0,0.5625,0,62.507812)"
       gradientUnits="userSpaceOnUse" />
    <linearGradient
       inkscape:collect="always"
       xlink:href="#linearGradient992"
       id="linearGradient996"
       x1="-2.2737368e-13"
       y1="142.875"
       x2="508"
       y2="142.875"
       gradientUnits="userSpaceOnUse" />
  </defs>
  <metadata
     id="metadata5">
    <rdf:RDF>
      <cc:Work
         rdf:about="">
        <dc:format>image/svg+xml</dc:format>
        <dc:type
           rdf:resource="http://purl.org/dc/dcmitype/StillImage" />
        <dc:title />
      </cc:Work>
    </rdf:RDF>
  </metadata>
  <rect
     style="fill:#0000ff;fill-opacity:1;stroke-width:10.2955"
     id="rect857"
     width="508"
     height="285.75"
     x="6.1035156e-05"
     y="0" />
  <rect
     style="fill:url(#linearGradient996);fill-opacity:1;stroke-width:10.2955"
     id="rect861"
     width="508"
     height="285.75"
     x="0"
     y="0" />
  <text
     xml:space="preserve"
     id="text1395"
     style="font-style:normal;font-variant:normal;font-weight:bold;font-stretch:normal;font-size:33.5139px;line-height:1.25;font-family:sans-serif;-inkscape-font-specification:'sans-serif Bold';white-space:pre;shape-inside:url(#rect1397);fill:#ffffff;"
     transform="translate(-55.749087,-51.323137)"><tspan
       x="146.88867"
       y="88.763449"><tspan>Weekly CTF Training</tspan></tspan></text>
  <g
     id="g1515"
     transform="matrix(0.004,0,0,0.004,483,25)">
    <circle
       id="circle1498"
       cx="0"
       cy="0"
       r="5000" />
    <circle
       r="4500"
       fill="#ffffff"
       id="circle1500"
       cx="0"
       cy="0" />
    <path
       d="m -1944,1560 v -4207 c -187,-12 -343,0 -441,29 -28,-61 144,-155 441,-245 v -810 h 438 v 700 c 1578,-327 4724,-344 4741,2384 11,1926 -3401,1632 -4390,2257 -1076,678 -593,2113 -593,2113 0,0 -651,-1344 -196,-2221 z m 438,-469 C -1044,777 -251,398 -98,-327 210,-1785 -717,-2390 -1506,-2580 Z"
       id="path1502" />
  </g>
  <text
     xml:space="preserve"
     id="text4719"
     style="font-size:25.4px;line-height:1.25;font-family:sans-serif;white-space:pre;shape-inside:url(#rect4721);"
     transform="translate(6.1035156e-5)" />
  <text
     xml:space="preserve"
     id="text4725"
     style="font-size:33.5139px;line-height:1.25;font-family:sans-serif;white-space:pre;shape-inside:url(#rect4727);fill:#000000;"
     transform="translate(109.50225,-23.047036)"><tspan
       x="12.335938"
       y="286.37087"><tspan
         style="font-style:normal;font-variant:normal;font-weight:bold;font-stretch:normal;font-size:33.5139px;font-family:sans-serif;-inkscape-font-specification:'sans-serif Bold';fill:#ffffff">Mondays @ 6pm</tspan></tspan></text>
  <g
     id="layer2"
     style="display:inline" />
  <style
     type="text/css"
     id="style2136">
	.st0{fill:#FFFFFF;}
	.st1{fill:#003366;}
	.st2{fill:#EA7E20;}
</style>
  <g
     id="g1149"
     transform="matrix(0.77614789,0,0,0.80309478,225.49387,63.708946)">
    <title
       id="title1141">Layer 1</title>
    <path
       fill="#0000ff"
       fill-rule="evenodd"
       stroke-width="1pt"
       id="path2171"
       d="m 172.78125,7.1875 c -1.89037,1.13422 -37.4268,12.48464 -50.28125,14.375 0.003,0.0094 0.0279,0.08417 0.0312,0.09375 -17.9625,2.37767 -35.5345,-20.70604 -51.46875,-11.8125 0,0 0.06235,0.12459 0.0625,0.125 -20.15733,3.39776 -39.60504,8.24242 -59.40625,14.59375 0,0 24.953388,68.825851 26.84375,74.875 11.106548,-7.404373 51.874603,-16.52404 58.90625,-17.96875 0.009,0.02606 0.05372,0.162117 0.0625,0.1875 20.03343,3.338913 24.55627,16.045181 49.71875,10.09375 0.027,0.03371 0.1655,0.482399 0.1875,0.5 6.04915,-1.134216 49.90625,-14.75 49.90625,-14.75 0,0 -22.67213,-71.44672 -24.5625,-70.3125 z" />
    <path
       fill="#404040"
       fill-rule="evenodd"
       stroke-width="1pt"
       id="path2167"
       d="m 7.93951,18.903589 4.15879,4.91494 58.601132,161.058611 -1.890366,4.91491 -3.780708,-2.26841 L 6.04915,24.1966 5.29301,21.17202 Z" />
    <path
       fill="#ffffff"
       fill-opacity="0.12549"
       fill-rule="evenodd"
       stroke-width="1pt"
       id="path2177"
       d="m 143.6673,17.013229 c 0,0 27.59924,-10.964079 29.48961,-9.829869 1.89035,1.13422 20.79394,56.332711 21.92816,62.003789 1.13421,5.671074 -31.75804,-47.637058 -51.41777,-52.17392 z" />
    <path
       fill="#ffffff"
       fill-opacity="0.12549"
       fill-rule="evenodd"
       stroke-width="1pt"
       id="path2178"
       d="m 27.599239,20.037809 c 0,0 41.965984,-13.61059 44.612484,-10.207939 2.6465,3.402639 24.952736,64.272211 21.928154,60.491488 C 91.11531,66.540642 37.807178,22.30624 27.599239,20.03781 Z" />
    <path
       fill="#000000"
       fill-rule="evenodd"
       stroke-width="2.5"
       stroke-miterlimit="4"
       id="path908"
       d="M 174.28125,5.1875 C 154.83023,11.88461 135.38168,19.969681 114.59399,21.12133 101.15337,19.14731 91.779381,3.20597 77.152314,7.15913 55.183999,10.93694 33.740601,17.127489 12.250001,22.9375 7.554171,10.9488 0.998021,19.227961 6.790661,30.81628 26.104221,83.896827 45.955979,137.00845 65.34234,190.0625 79.233362,199.11058 67.629228,173.29378 65.41742,166.88979 57.232153,144.40828 48.972601,121.9533 40.968752,99.40625 61.022001,91.939056 81.661165,84.03447 103.20859,83.113968 c 12.17558,3.178741 21.89467,16.917102 36.12949,11.494324 20.09205,-2.751099 38.99754,-10.449051 58.39703,-15.905273 0.71196,-10.735901 -7.34074,-22.890598 -9.90468,-34.181717 C 183.32308,31.40692 178.816,18.292441 174.28125,5.187501 Z M 172.75,8.40625 c 7.79167,22.64583 15.58333,45.291672 23.375,67.9375 C 174.08214,83.084473 152.14127,92.042 128.85037,92.914238 116.00247,90.004837 107.07663,77.051964 91.57608,81.636101 73.927429,84.839371 56.821499,90.482773 40.15625,97.03125 31.259491,73.078568 22.32007,49.141731 13.34375,25.21875 36.350349,19.18347 59.188068,12.00039 82.871559,9.07315 96.866577,10.9039 106.52715,27.31099 121.74686,23.211411 139.29147,20.41446 156.09467,14.393791 172.75,8.40625 Z M 20.83567,52.625912 c 14.862961,39.28648 29.120979,78.838608 43.362022,118.323478 3.287857,3.83445 8.543274,23.9981 1.12204,13.96679 C 45.94538,130.44868 25.965999,75.404244 6.312219,21.0017 c 3.99095,-4.36511 9.48772,21.13727 14.52345,31.624212 z" />
    <path
       fill="#000000"
       fill-opacity="0.094118"
       fill-rule="evenodd"
       stroke-width="1pt"
       id="path2176"
       d="m 97.164459,15.12287 c 0,0 19.659741,72.211717 23.440451,75.236299 5.67108,6.049149 32.1361,0 37.05105,-0.756142 C 131.19092,73.724006 107.75047,35.538749 102.0794,17.3913 c -2.646501,-2.26843 -1.51229,0.37808 -4.914941,-2.26843 z" />
  </g>
  <g
     id="g1293"
     transform="matrix(-0.77614789,0,0,0.80309478,282.50613,63.708946)">
    <title
       id="title1285">Layer 1</title>
    <path
       fill="#ff0000"
       fill-rule="evenodd"
       stroke-width="1pt"
       id="path2171-3"
       d="m 172.78125,7.1875 c -1.89037,1.13422 -37.4268,12.48464 -50.28125,14.375 0.003,0.0094 0.0279,0.08417 0.0312,0.09375 -17.9625,2.37767 -35.5345,-20.70604 -51.46875,-11.8125 0,0 0.06235,0.12459 0.0625,0.125 -20.15733,3.39776 -39.60504,8.24242 -59.40625,14.59375 0,0 24.953388,68.825851 26.84375,74.875 11.106548,-7.404373 51.874603,-16.52404 58.90625,-17.96875 0.009,0.02606 0.05372,0.162117 0.0625,0.1875 20.03343,3.338913 24.55627,16.045181 49.71875,10.09375 0.027,0.03371 0.1655,0.482399 0.1875,0.5 6.04915,-1.134216 49.90625,-14.75 49.90625,-14.75 0,0 -22.67213,-71.44672 -24.5625,-70.3125 z" />
    <path
       fill="#404040"
       fill-rule="evenodd"
       stroke-width="1pt"
       id="path2167-6"
       d="m 7.93951,18.903589 4.15879,4.91494 58.601132,161.058611 -1.890366,4.91491 -3.780708,-2.26841 L 6.04915,24.1966 5.29301,21.17202 Z" />
    <path
       fill="#ffffff"
       fill-opacity="0.12549"
       fill-rule="evenodd"
       stroke-width="1pt"
       id="path2177-7"
       d="m 143.6673,17.013229 c 0,0 27.59924,-10.964079 29.48961,-9.829869 1.89035,1.13422 20.79394,56.332711 21.92816,62.003789 1.13421,5.671074 -31.75804,-47.637058 -51.41777,-52.17392 z" />
    <path
       fill="#ffffff"
       fill-opacity="0.12549"
       fill-rule="evenodd"
       stroke-width="1pt"
       id="path2178-5"
       d="m 27.599239,20.037809 c 0,0 41.965984,-13.61059 44.612484,-10.207939 2.6465,3.402639 24.952736,64.272211 21.928154,60.491488 C 91.11531,66.540642 37.807178,22.30624 27.599239,20.03781 Z" />
    <path
       fill="#000000"
       fill-rule="evenodd"
       stroke-width="2.5"
       stroke-miterlimit="4"
       id="path908-3"
       d="M 174.28125,5.1875 C 154.83023,11.88461 135.38168,19.969681 114.59399,21.12133 101.15337,19.14731 91.779381,3.20597 77.152314,7.15913 55.183999,10.93694 33.740601,17.127489 12.250001,22.9375 7.554171,10.9488 0.998021,19.227961 6.790661,30.81628 26.104221,83.896827 45.955979,137.00845 65.34234,190.0625 79.233362,199.11058 67.629228,173.29378 65.41742,166.88979 57.232153,144.40828 48.972601,121.9533 40.968752,99.40625 61.022001,91.939056 81.661165,84.03447 103.20859,83.113968 c 12.17558,3.178741 21.89467,16.917102 36.12949,11.494324 20.09205,-2.751099 38.99754,-10.449051 58.39703,-15.905273 0.71196,-10.735901 -7.34074,-22.890598 -9.90468,-34.181717 C 183.32308,31.40692 178.816,18.292441 174.28125,5.187501 Z M 172.75,8.40625 c 7.79167,22.64583 15.58333,45.291672 23.375,67.9375 C 174.08214,83.084473 152.14127,92.042 128.85037,92.914238 116.00247,90.004837 107.07663,77.051964 91.57608,81.636101 73.927429,84.839371 56.821499,90.482773 40.15625,97.03125 31.259491,73.078568 22.32007,49.141731 13.34375,25.21875 36.350349,19.18347 59.188068,12.00039 82.871559,9.07315 96.866577,10.9039 106.52715,27.31099 121.74686,23.211411 139.29147,20.41446 156.09467,14.393791 172.75,8.40625 Z M 20.83567,52.625912 c 14.862961,39.28648 29.120979,78.838608 43.362022,118.323478 3.287857,3.83445 8.543274,23.9981 1.12204,13.96679 C 45.94538,130.44868 25.965999,75.404244 6.312219,21.0017 c 3.99095,-4.36511 9.48772,21.13727 14.52345,31.624212 z" />
    <path
       fill="#000000"
       fill-opacity="0.094118"
       fill-rule="evenodd"
       stroke-width="1pt"
       id="path2176-5"
       d="m 97.164459,15.12287 c 0,0 19.659741,72.211717 23.440451,75.236299 5.67108,6.049149 32.1361,0 37.05105,-0.756142 C 131.19092,73.724006 107.75047,35.538749 102.0794,17.3913 c -2.646501,-2.26843 -1.51229,0.37808 -4.914941,-2.26843 z" />
  </g>
</svg>
